<?xml version="1.0" encoding="iso-8859-1"?>
<!DOCTYPE svg PUBLIC "-//W3C//DTD SVG 20000303 Stylable//EN"
"http://www.w3.org/TR/2000/03/WD-SVG-20000303/DTD/svg-20000303-stylable.dtd">

<svg width="0.4521in" height="1.4792in" viewBox="0 0 162 530">

<path style="fill:#7f7f7f" d="M15,515 l0,-500 132,0 0,500 -132,0z" />
<path style="fill:#999" d="M23,515 l0,-500 116,0 0,500 -116,0z" />
<path style="fill:#b2b2b2" d="M37,515 l0,-500 88,0 0,500 -88,0z" />
<path style="fill:#ccc" d="M51,515 l0,-500 61,0 0,500 -61,0z" />
<path style="fill:#e5e5e5" d="M61,515 l0,-500 39,0 0,500 -39,0z" />
<path style="fill:#fff" d="M73,515 l0,-500 16,0 0,500 -16,0z" />
<path style="fill:none;stroke:#000;stroke-width:2" d="M147,515 l0,-500" />
<path style="fill:none;stroke:#000;stroke-width:2" d="M15,15 l0,500" />

</svg>
